<mxfile host="app.diagrams.net" agent="Mozilla/5.0 (Macintosh; Intel Mac OS X 10_15_7) AppleWebKit/605.1.15 (KHTML, like Gecko) Version/18.4 Safari/605.1.15" version="26.2.14" pages="2">
  <diagram id="y-vwxm3gBHwS563n7roD" name="Embeddings">
    <mxGraphModel dx="2066" dy="1169" grid="1" gridSize="10" guides="1" tooltips="1" connect="1" arrows="1" fold="1" page="1" pageScale="1" pageWidth="827" pageHeight="1169" math="0" shadow="0">
      <root>
        <mxCell id="0" />
        <mxCell id="1" parent="0" />
        <mxCell id="Iv172pUI2cfiQ5QS8v95-1" value="1. Input Text&#xa;&#39;AI is powerful&#39;" style="whiteSpace=wrap;strokeWidth=2;fillColor=#D5E8D4;" vertex="1" parent="1">
          <mxGeometry x="614" y="20" width="260" height="78" as="geometry" />
        </mxCell>
        <mxCell id="Iv172pUI2cfiQ5QS8v95-2" value="2. Preprocessing&#xa;&#39;ai is powerful&#39;" style="whiteSpace=wrap;strokeWidth=2;fillColor=#D5E8D4;" vertex="1" parent="1">
          <mxGeometry x="614" y="148" width="260" height="78" as="geometry" />
        </mxCell>
        <mxCell id="Iv172pUI2cfiQ5QS8v95-3" value="3. Tokenization&#xa;→ [&#39;ai&#39;, &#39;is&#39;, &#39;powerful&#39;]" style="whiteSpace=wrap;strokeWidth=2;" vertex="1" parent="1">
          <mxGeometry x="614" y="276" width="260" height="78" as="geometry" />
        </mxCell>
        <mxCell id="Iv172pUI2cfiQ5QS8v95-4" value="(Optional) Contextual Encoding&#xa;e.g., BERT/GPT reads full sentence" style="whiteSpace=wrap;strokeWidth=2;" vertex="1" parent="1">
          <mxGeometry x="532" y="404" width="260" height="126" as="geometry" />
        </mxCell>
        <mxCell id="Iv172pUI2cfiQ5QS8v95-5" value="4. Word Embedding&#xa;&#39;ai&#39; → [0.12, 0.85,...]&#xa;&#39;is&#39; → [0.01, 0.05,...]" style="whiteSpace=wrap;strokeWidth=2;" vertex="1" parent="1">
          <mxGeometry x="614" y="580" width="260" height="78" as="geometry" />
        </mxCell>
        <mxCell id="Iv172pUI2cfiQ5QS8v95-6" value="5. Vector Space&#xa;&#39;king&#39; ≈ &#39;queen&#39;,&#xa;&#39;powerful&#39; ≠ &#39;weak&#39;" style="whiteSpace=wrap;strokeWidth=2;" vertex="1" parent="1">
          <mxGeometry x="614" y="708" width="260" height="78" as="geometry" />
        </mxCell>
        <mxCell id="Iv172pUI2cfiQ5QS8v95-7" value="6A. Combine Word Vectors&#xa;Avg([ai],[is],[powerful])" style="whiteSpace=wrap;strokeWidth=2;" vertex="1" parent="1">
          <mxGeometry x="619" y="836" width="250" height="78" as="geometry" />
        </mxCell>
        <mxCell id="Iv172pUI2cfiQ5QS8v95-8" value="6B. Sentence Embedding&#xa;→ [0.24, 0.41, 0.78,...]" style="whiteSpace=wrap;strokeWidth=2;" vertex="1" parent="1">
          <mxGeometry x="626" y="964" width="237" height="78" as="geometry" />
        </mxCell>
        <mxCell id="Iv172pUI2cfiQ5QS8v95-9" value="7. Use Cases" style="whiteSpace=wrap;strokeWidth=2;" vertex="1" parent="1">
          <mxGeometry x="614" y="1092" width="260" height="78" as="geometry" />
        </mxCell>
        <mxCell id="Iv172pUI2cfiQ5QS8v95-10" value="Semantic Search&#xa;&#39;Strong AI&#39; ≈ &#39;Powerful AI&#39;" style="whiteSpace=wrap;strokeWidth=2;" vertex="1" parent="1">
          <mxGeometry x="20" y="1232" width="234" height="78" as="geometry" />
        </mxCell>
        <mxCell id="Iv172pUI2cfiQ5QS8v95-11" value="Similarity Matching&#xa;&#39;ChatGPT is great&#39; ≈ &#39;OpenAI bot is useful&#39;" style="whiteSpace=wrap;strokeWidth=2;" vertex="1" parent="1">
          <mxGeometry x="304" y="1220" width="260" height="102" as="geometry" />
        </mxCell>
        <mxCell id="Iv172pUI2cfiQ5QS8v95-12" value="Classification&#xa;e.g., &#39;angry review&#39; → Negative" style="whiteSpace=wrap;strokeWidth=2;" vertex="1" parent="1">
          <mxGeometry x="614" y="1220" width="260" height="102" as="geometry" />
        </mxCell>
        <mxCell id="Iv172pUI2cfiQ5QS8v95-13" value="Recommendations&#xa;&#39;Liked article A&#39; → Suggest similar articles" style="whiteSpace=wrap;strokeWidth=2;" vertex="1" parent="1">
          <mxGeometry x="924" y="1220" width="260" height="102" as="geometry" />
        </mxCell>
        <mxCell id="Iv172pUI2cfiQ5QS8v95-14" value="Chatbots&#xa;Understand &amp;amp; respond better" style="whiteSpace=wrap;strokeWidth=2;" vertex="1" parent="1">
          <mxGeometry x="1234" y="1220" width="260" height="102" as="geometry" />
        </mxCell>
        <mxCell id="Iv172pUI2cfiQ5QS8v95-15" value="" style="curved=1;startArrow=none;endArrow=block;exitX=0.5;exitY=1;entryX=0.5;entryY=0;rounded=0;" edge="1" parent="1" source="Iv172pUI2cfiQ5QS8v95-1" target="Iv172pUI2cfiQ5QS8v95-2">
          <mxGeometry relative="1" as="geometry">
            <Array as="points" />
          </mxGeometry>
        </mxCell>
        <mxCell id="Iv172pUI2cfiQ5QS8v95-16" value="" style="curved=1;startArrow=none;endArrow=block;exitX=0.5;exitY=1;entryX=0.5;entryY=0;rounded=0;" edge="1" parent="1" source="Iv172pUI2cfiQ5QS8v95-2" target="Iv172pUI2cfiQ5QS8v95-3">
          <mxGeometry relative="1" as="geometry">
            <Array as="points" />
          </mxGeometry>
        </mxCell>
        <mxCell id="Iv172pUI2cfiQ5QS8v95-17" value="" style="curved=1;startArrow=none;endArrow=block;exitX=0.31;exitY=1;entryX=0.5;entryY=0;rounded=0;" edge="1" parent="1" source="Iv172pUI2cfiQ5QS8v95-3" target="Iv172pUI2cfiQ5QS8v95-4">
          <mxGeometry relative="1" as="geometry">
            <Array as="points">
              <mxPoint x="662" y="379" />
            </Array>
          </mxGeometry>
        </mxCell>
        <mxCell id="Iv172pUI2cfiQ5QS8v95-18" value="" style="curved=1;startArrow=none;endArrow=block;exitX=0.5;exitY=1;entryX=0.31;entryY=0;rounded=0;" edge="1" parent="1" source="Iv172pUI2cfiQ5QS8v95-4" target="Iv172pUI2cfiQ5QS8v95-5">
          <mxGeometry relative="1" as="geometry">
            <Array as="points">
              <mxPoint x="662" y="555" />
            </Array>
          </mxGeometry>
        </mxCell>
        <mxCell id="Iv172pUI2cfiQ5QS8v95-19" value="" style="curved=1;startArrow=none;endArrow=block;exitX=0.69;exitY=1;entryX=0.69;entryY=0;rounded=0;" edge="1" parent="1" source="Iv172pUI2cfiQ5QS8v95-3" target="Iv172pUI2cfiQ5QS8v95-5">
          <mxGeometry relative="1" as="geometry">
            <Array as="points">
              <mxPoint x="827" y="379" />
              <mxPoint x="827" y="555" />
            </Array>
          </mxGeometry>
        </mxCell>
        <mxCell id="Iv172pUI2cfiQ5QS8v95-20" value="" style="curved=1;startArrow=none;endArrow=block;exitX=0.5;exitY=1;entryX=0.5;entryY=0;rounded=0;" edge="1" parent="1" source="Iv172pUI2cfiQ5QS8v95-5" target="Iv172pUI2cfiQ5QS8v95-6">
          <mxGeometry relative="1" as="geometry">
            <Array as="points" />
          </mxGeometry>
        </mxCell>
        <mxCell id="Iv172pUI2cfiQ5QS8v95-21" value="" style="curved=1;startArrow=none;endArrow=block;exitX=0.5;exitY=1;entryX=0.5;entryY=0;rounded=0;" edge="1" parent="1" source="Iv172pUI2cfiQ5QS8v95-6" target="Iv172pUI2cfiQ5QS8v95-7">
          <mxGeometry relative="1" as="geometry">
            <Array as="points" />
          </mxGeometry>
        </mxCell>
        <mxCell id="Iv172pUI2cfiQ5QS8v95-22" value="" style="curved=1;startArrow=none;endArrow=block;exitX=0.5;exitY=1;entryX=0.5;entryY=0;rounded=0;" edge="1" parent="1" source="Iv172pUI2cfiQ5QS8v95-7" target="Iv172pUI2cfiQ5QS8v95-8">
          <mxGeometry relative="1" as="geometry">
            <Array as="points" />
          </mxGeometry>
        </mxCell>
        <mxCell id="Iv172pUI2cfiQ5QS8v95-23" value="" style="curved=1;startArrow=none;endArrow=block;exitX=0.5;exitY=1;entryX=0.5;entryY=0;rounded=0;" edge="1" parent="1" source="Iv172pUI2cfiQ5QS8v95-8" target="Iv172pUI2cfiQ5QS8v95-9">
          <mxGeometry relative="1" as="geometry">
            <Array as="points" />
          </mxGeometry>
        </mxCell>
        <mxCell id="Iv172pUI2cfiQ5QS8v95-24" value="" style="curved=1;startArrow=none;endArrow=block;exitX=0;exitY=0.68;entryX=0.5;entryY=0;rounded=0;" edge="1" parent="1" source="Iv172pUI2cfiQ5QS8v95-9" target="Iv172pUI2cfiQ5QS8v95-10">
          <mxGeometry relative="1" as="geometry">
            <Array as="points">
              <mxPoint x="137" y="1195" />
            </Array>
          </mxGeometry>
        </mxCell>
        <mxCell id="Iv172pUI2cfiQ5QS8v95-25" value="" style="curved=1;startArrow=none;endArrow=block;exitX=0;exitY=0.84;entryX=0.5;entryY=0;rounded=0;" edge="1" parent="1" source="Iv172pUI2cfiQ5QS8v95-9" target="Iv172pUI2cfiQ5QS8v95-11">
          <mxGeometry relative="1" as="geometry">
            <Array as="points">
              <mxPoint x="434" y="1195" />
            </Array>
          </mxGeometry>
        </mxCell>
        <mxCell id="Iv172pUI2cfiQ5QS8v95-26" value="" style="curved=1;startArrow=none;endArrow=block;exitX=0.5;exitY=1;entryX=0.5;entryY=0;rounded=0;" edge="1" parent="1" source="Iv172pUI2cfiQ5QS8v95-9" target="Iv172pUI2cfiQ5QS8v95-12">
          <mxGeometry relative="1" as="geometry">
            <Array as="points" />
          </mxGeometry>
        </mxCell>
        <mxCell id="Iv172pUI2cfiQ5QS8v95-27" value="" style="curved=1;startArrow=none;endArrow=block;exitX=1;exitY=0.84;entryX=0.5;entryY=0;rounded=0;" edge="1" parent="1" source="Iv172pUI2cfiQ5QS8v95-9" target="Iv172pUI2cfiQ5QS8v95-13">
          <mxGeometry relative="1" as="geometry">
            <Array as="points">
              <mxPoint x="1054" y="1195" />
            </Array>
          </mxGeometry>
        </mxCell>
        <mxCell id="Iv172pUI2cfiQ5QS8v95-28" value="" style="curved=1;startArrow=none;endArrow=block;exitX=1;exitY=0.67;entryX=0.5;entryY=0;rounded=0;" edge="1" parent="1" source="Iv172pUI2cfiQ5QS8v95-9" target="Iv172pUI2cfiQ5QS8v95-14">
          <mxGeometry relative="1" as="geometry">
            <Array as="points">
              <mxPoint x="1364" y="1195" />
            </Array>
          </mxGeometry>
        </mxCell>
      </root>
    </mxGraphModel>
  </diagram>
  <diagram id="_T9zcXEiZWAiXTmtJRQs" name="Chunking">
    <mxGraphModel dx="1722" dy="974" grid="1" gridSize="10" guides="1" tooltips="1" connect="1" arrows="1" fold="1" page="1" pageScale="1" pageWidth="827" pageHeight="1169" math="0" shadow="0">
      <root>
        <mxCell id="0" />
        <mxCell id="1" parent="0" />
      </root>
    </mxGraphModel>
  </diagram>
</mxfile>
